<mxfile host="app.diagrams.net" modified="2023-06-24T08:03:56.229Z" agent="Mozilla/5.0 (Windows NT 10.0; Win64; x64) AppleWebKit/537.36 (KHTML, like Gecko) Chrome/114.0.0.0 Safari/537.36" etag="adxwbRREp3KYiEaqi84d" version="21.3.6" type="github">
  <diagram name="Page-1" id="smB--M4yf6W7f1LF3n2W">
    <mxGraphModel dx="2084" dy="660" grid="1" gridSize="10" guides="1" tooltips="1" connect="1" arrows="1" fold="1" page="1" pageScale="1" pageWidth="827" pageHeight="1169" math="0" shadow="0">
      <root>
        <mxCell id="0" />
        <mxCell id="1" parent="0" />
        <mxCell id="VkN9BfVTwSPfPO7Xqwz8-1" value="НАЧАЛО" style="rounded=1;whiteSpace=wrap;html=1;" vertex="1" parent="1">
          <mxGeometry x="340" y="10" width="120" height="60" as="geometry" />
        </mxCell>
        <mxCell id="VkN9BfVTwSPfPO7Xqwz8-2" value="Выбор темы обсуждения" style="shape=parallelogram;perimeter=parallelogramPerimeter;whiteSpace=wrap;html=1;fixedSize=1;" vertex="1" parent="1">
          <mxGeometry x="340" y="130" width="120" height="60" as="geometry" />
        </mxCell>
        <mxCell id="VkN9BfVTwSPfPO7Xqwz8-3" value="Ввод сообщения" style="shape=parallelogram;perimeter=parallelogramPerimeter;whiteSpace=wrap;html=1;fixedSize=1;" vertex="1" parent="1">
          <mxGeometry x="340" y="220" width="120" height="60" as="geometry" />
        </mxCell>
        <mxCell id="VkN9BfVTwSPfPO7Xqwz8-5" value="Отправка сообщения" style="shape=parallelogram;perimeter=parallelogramPerimeter;whiteSpace=wrap;html=1;fixedSize=1;" vertex="1" parent="1">
          <mxGeometry x="320" y="310" width="150" height="70" as="geometry" />
        </mxCell>
        <mxCell id="VkN9BfVTwSPfPO7Xqwz8-6" value="Сообщение пустое?" style="rhombus;whiteSpace=wrap;html=1;" vertex="1" parent="1">
          <mxGeometry x="345" y="420" width="100" height="90" as="geometry" />
        </mxCell>
        <mxCell id="VkN9BfVTwSPfPO7Xqwz8-7" value="Сообщение не отправлено" style="shape=parallelogram;perimeter=parallelogramPerimeter;whiteSpace=wrap;html=1;fixedSize=1;" vertex="1" parent="1">
          <mxGeometry x="540" y="360" width="120" height="60" as="geometry" />
        </mxCell>
        <mxCell id="VkN9BfVTwSPfPO7Xqwz8-8" value="" style="endArrow=classic;html=1;rounded=0;exitX=1;exitY=0.5;exitDx=0;exitDy=0;entryX=0.417;entryY=1;entryDx=0;entryDy=0;entryPerimeter=0;" edge="1" parent="1" source="VkN9BfVTwSPfPO7Xqwz8-6" target="VkN9BfVTwSPfPO7Xqwz8-7">
          <mxGeometry width="50" height="50" relative="1" as="geometry">
            <mxPoint x="470" y="470" as="sourcePoint" />
            <mxPoint x="520" y="420" as="targetPoint" />
            <Array as="points">
              <mxPoint x="590" y="465" />
            </Array>
          </mxGeometry>
        </mxCell>
        <mxCell id="VkN9BfVTwSPfPO7Xqwz8-9" value="Да" style="text;html=1;align=center;verticalAlign=middle;resizable=0;points=[];autosize=1;strokeColor=none;fillColor=none;" vertex="1" parent="1">
          <mxGeometry x="500" y="440" width="40" height="30" as="geometry" />
        </mxCell>
        <mxCell id="VkN9BfVTwSPfPO7Xqwz8-10" value="" style="endArrow=classic;html=1;rounded=0;exitX=0.567;exitY=-0.017;exitDx=0;exitDy=0;exitPerimeter=0;" edge="1" parent="1" source="VkN9BfVTwSPfPO7Xqwz8-7" target="VkN9BfVTwSPfPO7Xqwz8-5">
          <mxGeometry width="50" height="50" relative="1" as="geometry">
            <mxPoint x="560" y="330" as="sourcePoint" />
            <mxPoint x="610" y="280" as="targetPoint" />
            <Array as="points">
              <mxPoint x="610" y="340" />
            </Array>
          </mxGeometry>
        </mxCell>
        <mxCell id="VkN9BfVTwSPfPO7Xqwz8-11" value="Формирование класса сообщения, формирование post запроса и отправка его" style="shape=parallelogram;perimeter=parallelogramPerimeter;whiteSpace=wrap;html=1;fixedSize=1;" vertex="1" parent="1">
          <mxGeometry x="130" y="520" width="220" height="95" as="geometry" />
        </mxCell>
        <mxCell id="VkN9BfVTwSPfPO7Xqwz8-12" value="Возвращаемый статусный код в пределах 200 - 399" style="rhombus;whiteSpace=wrap;html=1;" vertex="1" parent="1">
          <mxGeometry x="150" y="690" width="170" height="180" as="geometry" />
        </mxCell>
        <mxCell id="VkN9BfVTwSPfPO7Xqwz8-13" value="" style="endArrow=classic;html=1;rounded=0;exitX=0;exitY=0.5;exitDx=0;exitDy=0;entryX=0.5;entryY=0;entryDx=0;entryDy=0;" edge="1" parent="1" source="VkN9BfVTwSPfPO7Xqwz8-6" target="VkN9BfVTwSPfPO7Xqwz8-11">
          <mxGeometry width="50" height="50" relative="1" as="geometry">
            <mxPoint x="220" y="490" as="sourcePoint" />
            <mxPoint x="270" y="440" as="targetPoint" />
            <Array as="points">
              <mxPoint x="240" y="465" />
            </Array>
          </mxGeometry>
        </mxCell>
        <mxCell id="VkN9BfVTwSPfPO7Xqwz8-14" value="" style="endArrow=classic;html=1;rounded=0;entryX=0.5;entryY=0;entryDx=0;entryDy=0;" edge="1" parent="1" source="VkN9BfVTwSPfPO7Xqwz8-11" target="VkN9BfVTwSPfPO7Xqwz8-12">
          <mxGeometry width="50" height="50" relative="1" as="geometry">
            <mxPoint x="235" y="620" as="sourcePoint" />
            <mxPoint x="170" y="640" as="targetPoint" />
          </mxGeometry>
        </mxCell>
        <mxCell id="VkN9BfVTwSPfPO7Xqwz8-15" value="Отправка сообщения об ошибке соединения с сервером" style="shape=parallelogram;perimeter=parallelogramPerimeter;whiteSpace=wrap;html=1;fixedSize=1;" vertex="1" parent="1">
          <mxGeometry x="-140" y="570" width="170" height="70" as="geometry" />
        </mxCell>
        <mxCell id="VkN9BfVTwSPfPO7Xqwz8-16" value="" style="endArrow=classic;html=1;rounded=0;exitX=0;exitY=0.5;exitDx=0;exitDy=0;entryX=0.441;entryY=0.986;entryDx=0;entryDy=0;entryPerimeter=0;" edge="1" parent="1" source="VkN9BfVTwSPfPO7Xqwz8-12" target="VkN9BfVTwSPfPO7Xqwz8-15">
          <mxGeometry width="50" height="50" relative="1" as="geometry">
            <mxPoint x="80" y="770" as="sourcePoint" />
            <mxPoint x="130" y="720" as="targetPoint" />
            <Array as="points">
              <mxPoint x="-70" y="780" />
            </Array>
          </mxGeometry>
        </mxCell>
        <mxCell id="VkN9BfVTwSPfPO7Xqwz8-17" value="" style="endArrow=classic;html=1;rounded=0;exitX=0.5;exitY=0;exitDx=0;exitDy=0;entryX=0;entryY=0.5;entryDx=0;entryDy=0;" edge="1" parent="1" source="VkN9BfVTwSPfPO7Xqwz8-15" target="VkN9BfVTwSPfPO7Xqwz8-3">
          <mxGeometry width="50" height="50" relative="1" as="geometry">
            <mxPoint x="-60" y="540" as="sourcePoint" />
            <mxPoint x="-10" y="490" as="targetPoint" />
            <Array as="points">
              <mxPoint x="-50" y="250" />
            </Array>
          </mxGeometry>
        </mxCell>
        <mxCell id="VkN9BfVTwSPfPO7Xqwz8-18" value="" style="endArrow=classic;html=1;rounded=0;exitX=0.5;exitY=1;exitDx=0;exitDy=0;entryX=0.5;entryY=0;entryDx=0;entryDy=0;" edge="1" parent="1" source="VkN9BfVTwSPfPO7Xqwz8-1" target="VkN9BfVTwSPfPO7Xqwz8-2">
          <mxGeometry width="50" height="50" relative="1" as="geometry">
            <mxPoint x="220" y="160" as="sourcePoint" />
            <mxPoint x="270" y="110" as="targetPoint" />
          </mxGeometry>
        </mxCell>
        <mxCell id="VkN9BfVTwSPfPO7Xqwz8-19" value="" style="endArrow=classic;html=1;rounded=0;exitX=0.5;exitY=1;exitDx=0;exitDy=0;entryX=0.5;entryY=0;entryDx=0;entryDy=0;" edge="1" parent="1" source="VkN9BfVTwSPfPO7Xqwz8-2" target="VkN9BfVTwSPfPO7Xqwz8-3">
          <mxGeometry width="50" height="50" relative="1" as="geometry">
            <mxPoint x="210" y="200" as="sourcePoint" />
            <mxPoint x="260" y="150" as="targetPoint" />
          </mxGeometry>
        </mxCell>
        <mxCell id="VkN9BfVTwSPfPO7Xqwz8-20" value="" style="endArrow=classic;html=1;rounded=0;exitX=0.5;exitY=1;exitDx=0;exitDy=0;" edge="1" parent="1" source="VkN9BfVTwSPfPO7Xqwz8-3" target="VkN9BfVTwSPfPO7Xqwz8-5">
          <mxGeometry width="50" height="50" relative="1" as="geometry">
            <mxPoint x="210" y="450" as="sourcePoint" />
            <mxPoint x="260" y="400" as="targetPoint" />
          </mxGeometry>
        </mxCell>
        <mxCell id="VkN9BfVTwSPfPO7Xqwz8-21" value="" style="endArrow=classic;html=1;rounded=0;entryX=0.5;entryY=0;entryDx=0;entryDy=0;exitX=0.5;exitY=1;exitDx=0;exitDy=0;" edge="1" parent="1" source="VkN9BfVTwSPfPO7Xqwz8-5" target="VkN9BfVTwSPfPO7Xqwz8-6">
          <mxGeometry width="50" height="50" relative="1" as="geometry">
            <mxPoint x="270" y="450" as="sourcePoint" />
            <mxPoint x="320" y="400" as="targetPoint" />
          </mxGeometry>
        </mxCell>
        <mxCell id="VkN9BfVTwSPfPO7Xqwz8-22" value="Нет" style="text;html=1;align=center;verticalAlign=middle;resizable=0;points=[];autosize=1;strokeColor=none;fillColor=none;" vertex="1" parent="1">
          <mxGeometry x="40" y="760" width="40" height="30" as="geometry" />
        </mxCell>
        <mxCell id="VkN9BfVTwSPfPO7Xqwz8-23" value="Нет" style="text;html=1;align=center;verticalAlign=middle;resizable=0;points=[];autosize=1;strokeColor=none;fillColor=none;" vertex="1" parent="1">
          <mxGeometry x="280" y="430" width="40" height="30" as="geometry" />
        </mxCell>
        <mxCell id="VkN9BfVTwSPfPO7Xqwz8-24" value="Обновление страницы темы" style="shape=parallelogram;perimeter=parallelogramPerimeter;whiteSpace=wrap;html=1;fixedSize=1;" vertex="1" parent="1">
          <mxGeometry x="145" y="940" width="180" height="90" as="geometry" />
        </mxCell>
        <mxCell id="VkN9BfVTwSPfPO7Xqwz8-25" value="" style="endArrow=classic;html=1;rounded=0;exitX=0.5;exitY=1;exitDx=0;exitDy=0;" edge="1" parent="1" source="VkN9BfVTwSPfPO7Xqwz8-12" target="VkN9BfVTwSPfPO7Xqwz8-24">
          <mxGeometry width="50" height="50" relative="1" as="geometry">
            <mxPoint x="-10" y="970" as="sourcePoint" />
            <mxPoint x="40" y="920" as="targetPoint" />
          </mxGeometry>
        </mxCell>
        <mxCell id="VkN9BfVTwSPfPO7Xqwz8-26" value="Да" style="text;html=1;align=center;verticalAlign=middle;resizable=0;points=[];autosize=1;strokeColor=none;fillColor=none;" vertex="1" parent="1">
          <mxGeometry x="240" y="888" width="40" height="30" as="geometry" />
        </mxCell>
        <mxCell id="VkN9BfVTwSPfPO7Xqwz8-28" value="КОНЕЦ" style="rounded=1;whiteSpace=wrap;html=1;" vertex="1" parent="1">
          <mxGeometry x="175" y="1100" width="120" height="60" as="geometry" />
        </mxCell>
        <mxCell id="VkN9BfVTwSPfPO7Xqwz8-29" value="" style="endArrow=classic;html=1;rounded=0;entryX=0.5;entryY=0;entryDx=0;entryDy=0;exitX=0.5;exitY=1;exitDx=0;exitDy=0;" edge="1" parent="1" source="VkN9BfVTwSPfPO7Xqwz8-24" target="VkN9BfVTwSPfPO7Xqwz8-28">
          <mxGeometry width="50" height="50" relative="1" as="geometry">
            <mxPoint x="40" y="1110" as="sourcePoint" />
            <mxPoint x="90" y="1060" as="targetPoint" />
          </mxGeometry>
        </mxCell>
      </root>
    </mxGraphModel>
  </diagram>
</mxfile>
